<!DOCTYPE svg PUBLIC "-//W3C//DTD SVG 1.1//EN" "http://www.w3.org/Graphics/SVG/1.1/DTD/svg11.dtd">

<!-- Uploaded to: SVG Repo, www.svgrepo.com, Transformed by: SVG Repo Mixer Tools -->
<svg width="800px" height="800px" viewBox="0 0 32 32" xmlns="http://www.w3.org/2000/svg" fill="#000000">

<g id="SVGRepo_bgCarrier" stroke-width="0"/>

<g id="SVGRepo_tracerCarrier" stroke-linecap="round" stroke-linejoin="round"/>

<g id="SVGRepo_iconCarrier"> <defs> <style>.cls-1{fill:#30b546;}</style> </defs> <title/> <g data-name="Layer 20" id="Layer_20"> <path d="M20,12.93V4h2V2H10V4h2v8.93a9,9,0,1,0,8,0Zm.66,13.29A6.88,6.88,0,0,1,15.18,28a7,7,0,0,1-5-3.17A4.15,4.15,0,0,1,14,22a4.49,4.49,0,0,1,3.27,1.58,8.31,8.31,0,0,0,3.83,2.21A4.47,4.47,0,0,1,20.66,26.22ZM22.33,24a5.87,5.87,0,0,1-3.73-1.88A6.37,6.37,0,0,0,14,20a5.86,5.86,0,0,0-4.83,2.44,4.36,4.36,0,0,1-.11-.52,7,7,0,0,1,4.32-7.41l.62-.93V4h4V6H16V8h2V9H16v2h2v1H16v2h2.28l.34.51A7,7,0,0,1,22.33,24Z"/> <path class="cls-1" d="M21.1,25.79a4.47,4.47,0,0,1-.44.43A6.88,6.88,0,0,1,15.18,28a7,7,0,0,1-5-3.17A4.15,4.15,0,0,1,14,22a4.49,4.49,0,0,1,3.27,1.58A8.31,8.31,0,0,0,21.1,25.79Z"/> </g> </g>

</svg>